<svg width="280" height="61" viewBox="0 0 280 61" fill="none" xmlns="http://www.w3.org/2000/svg">
<path d="M53.0449 23.1367C53.0449 25.9297 52.957 28.7129 52.7812 31.4863C52.6055 34.2598 52.4004 37.043 52.166 39.8359L37.1074 40.5391C37.5566 37.1406 37.957 33.7422 38.3086 30.3438C38.6797 26.9258 38.8652 23.5078 38.8652 20.0898C38.8652 19.875 38.8555 19.5039 38.8359 18.9766C38.8164 18.4297 38.7773 17.8145 38.7188 17.1309C38.6797 16.4473 38.6113 15.7441 38.5137 15.0215C38.4355 14.2793 38.3184 13.6055 38.1621 13C38.0254 12.375 37.8496 11.8672 37.6348 11.4766C37.4199 11.0859 37.166 10.8906 36.873 10.8906C36.1895 10.8906 35.6523 11.1543 35.2617 11.6816C34.8711 12.1895 34.5781 12.8047 34.3828 13.5273C34.207 14.25 34.0996 14.9922 34.0605 15.7539C34.0215 16.4961 34.002 17.1016 34.002 17.5703C34.002 18.3906 34.0215 19.2109 34.0605 20.0312C34.0996 20.8516 34.1191 21.6914 34.1191 22.5508C34.1191 25.5781 34.041 28.5957 33.8848 31.6035C33.748 34.6113 33.5723 37.6289 33.3574 40.6562L19.4707 41.1836C19.9199 37.7852 20.3105 34.3965 20.6426 31.0176C20.9941 27.6191 21.1699 24.2109 21.1699 20.793C21.1699 20.5781 21.1602 20.1875 21.1406 19.6211C21.1211 19.0547 21.082 18.4199 21.0234 17.7168C20.9844 17.0137 20.916 16.2812 20.8184 15.5195C20.7207 14.7578 20.5938 14.0645 20.4375 13.4395C20.3008 12.7949 20.125 12.2676 19.9102 11.8574C19.6953 11.4473 19.4316 11.2422 19.1191 11.2422C18.6309 11.2422 18.2207 11.4375 17.8887 11.8281C17.5566 12.1992 17.2832 12.6875 17.0684 13.293C16.873 13.8984 16.7168 14.5723 16.5996 15.3145C16.502 16.0371 16.4238 16.75 16.3652 17.4531C16.3262 18.1562 16.2969 18.8105 16.2773 19.416C16.2773 20.002 16.2676 20.4414 16.248 20.7344L15.6035 42.1211H0.837891C1.15039 38.8203 1.46289 35.5098 1.77539 32.1895C2.10742 28.8691 2.39062 25.5586 2.625 22.2578C2.87891 18.9375 3.08398 15.6172 3.24023 12.2969C3.39648 8.97656 3.47461 5.65625 3.47461 2.33594L17.4199 1.75L17.3613 5.14844C17.791 4.60156 18.2793 4.05469 18.8262 3.50781C19.373 2.94141 19.9492 2.44336 20.5547 2.01367C21.1797 1.56445 21.834 1.20312 22.5176 0.929688C23.2207 0.65625 23.9434 0.519531 24.6855 0.519531C25.6426 0.519531 26.502 0.597656 27.2637 0.753906C28.0254 0.890625 28.709 1.13477 29.3145 1.48633C29.9395 1.83789 30.4863 2.32617 30.9551 2.95117C31.4238 3.55664 31.834 4.32812 32.1855 5.26562C32.8105 4.58203 33.4355 3.94727 34.0605 3.36133C34.7051 2.77539 35.3789 2.27734 36.082 1.86719C36.7852 1.4375 37.5469 1.10547 38.3672 0.871094C39.1875 0.636719 40.0957 0.519531 41.0918 0.519531C42.9863 0.519531 44.5977 0.890625 45.9258 1.63281C47.2539 2.35547 48.3574 3.32227 49.2363 4.5332C50.1348 5.74414 50.8281 7.13086 51.3164 8.69336C51.8242 10.2559 52.2051 11.877 52.459 13.5566C52.7129 15.2363 52.8691 16.9062 52.9277 18.5664C53.0059 20.2266 53.0449 21.75 53.0449 23.1367ZM91.9512 20.5586C91.9512 22.3359 91.7461 24.0547 91.3359 25.7148C90.9258 27.3555 90.3301 28.8984 89.5488 30.3438C88.7871 31.7891 87.8496 33.1172 86.7363 34.3281C85.6426 35.5195 84.4023 36.5449 83.0156 37.4043C81.6484 38.2637 80.1543 38.9375 78.5332 39.4258C76.9121 39.8945 75.1934 40.1289 73.377 40.1289C71.6191 40.1289 69.9395 39.9043 68.3379 39.4551C66.7559 39.0059 65.2715 38.3809 63.8848 37.5801C62.498 36.7598 61.2383 35.7832 60.1055 34.6504C58.9922 33.498 58.0352 32.2285 57.2344 30.8418C56.4531 29.4355 55.8379 27.9316 55.3887 26.3301C54.959 24.7285 54.7441 23.0586 54.7441 21.3203C54.7441 19.6211 54.9492 17.9609 55.3594 16.3398C55.7695 14.6992 56.3555 13.1563 57.1172 11.7109C57.8984 10.2656 58.8359 8.9375 59.9297 7.72656C61.0234 6.51563 62.2441 5.4707 63.5918 4.5918C64.959 3.71289 66.4336 3.0293 68.0156 2.54102C69.5977 2.05273 71.2676 1.80859 73.0254 1.80859C75.8574 1.80859 78.4355 2.24805 80.7598 3.12695C83.1035 4.00586 85.0957 5.26562 86.7363 6.90625C88.3965 8.52734 89.6758 10.5 90.5742 12.8242C91.4922 15.1289 91.9512 17.707 91.9512 20.5586ZM78.9434 21.3203C78.9434 20.4805 78.8164 19.6699 78.5625 18.8887C78.3281 18.0879 77.9766 17.3848 77.5078 16.7793C77.0391 16.1543 76.4531 15.6562 75.75 15.2852C75.0664 14.8945 74.2754 14.6992 73.377 14.6992C72.459 14.6992 71.6387 14.8652 70.916 15.1973C70.1934 15.5293 69.5684 15.9883 69.041 16.5742C68.5332 17.1406 68.1426 17.8145 67.8691 18.5957C67.5957 19.3574 67.459 20.168 67.459 21.0273C67.459 21.8477 67.5762 22.668 67.8105 23.4883C68.0449 24.3086 68.3965 25.0508 68.8652 25.7148C69.334 26.3789 69.9102 26.916 70.5938 27.3262C71.2969 27.7363 72.1074 27.9414 73.0254 27.9414C73.9434 27.9414 74.7637 27.7656 75.4863 27.4141C76.2285 27.043 76.8535 26.5547 77.3613 25.9492C77.8691 25.3242 78.2598 24.6113 78.5332 23.8105C78.8066 23.0098 78.9434 22.1797 78.9434 21.3203ZM128.104 32.5703C128.104 34.1914 127.801 35.5879 127.195 36.7598C126.609 37.9316 125.818 38.9277 124.822 39.748C123.826 40.5684 122.674 41.2422 121.365 41.7695C120.076 42.2773 118.729 42.6777 117.322 42.9707C115.916 43.2637 114.5 43.459 113.074 43.5566C111.668 43.6543 110.35 43.7031 109.119 43.7031C107.908 43.7031 106.648 43.6543 105.34 43.5566C104.051 43.4785 102.762 43.332 101.473 43.1172C100.184 42.9023 98.9141 42.6191 97.6641 42.2676C96.4141 41.8965 95.2324 41.4375 94.1191 40.8906L94.0605 3.15625C95.1543 2.70703 96.3164 2.30664 97.5469 1.95508C98.7773 1.58398 100.027 1.28125 101.297 1.04688C102.586 0.792969 103.865 0.607422 105.135 0.490234C106.404 0.353516 107.635 0.285156 108.826 0.285156C110.213 0.285156 111.609 0.373047 113.016 0.548828C114.441 0.724609 115.809 1.01758 117.117 1.42773C118.426 1.83789 119.646 2.375 120.779 3.03906C121.912 3.68359 122.898 4.48437 123.738 5.44141C124.598 6.39844 125.262 7.51172 125.73 8.78125C126.219 10.0508 126.463 11.5156 126.463 13.1758C126.463 14.2695 126.307 15.2949 125.994 16.252C125.682 17.209 125.232 18.0684 124.646 18.8301C124.061 19.5918 123.348 20.2461 122.508 20.793C121.668 21.3203 120.721 21.7109 119.666 21.9648C120.936 22.2969 122.088 22.7852 123.123 23.4297C124.178 24.0742 125.066 24.8555 125.789 25.7734C126.531 26.6914 127.098 27.7266 127.488 28.8789C127.898 30.0312 128.104 31.2617 128.104 32.5703ZM113.221 15.8711C113.221 15.3047 113.104 14.8262 112.869 14.4355C112.635 14.0254 112.342 13.6934 111.99 13.4395C111.658 13.1855 111.287 13 110.877 12.8828C110.486 12.7656 110.135 12.707 109.822 12.707C109.432 12.707 109.051 12.7656 108.68 12.8828C108.309 13 107.947 13.1367 107.596 13.293L107.42 19.7969C107.869 19.7969 108.426 19.7578 109.09 19.6797C109.754 19.6016 110.389 19.4355 110.994 19.1816C111.619 18.9082 112.146 18.5176 112.576 18.0098C113.006 17.4824 113.221 16.7695 113.221 15.8711ZM109.061 25.4219C108.494 25.4219 107.947 25.4805 107.42 25.5977L107.303 32.2773C107.596 32.3359 107.879 32.3945 108.152 32.4531C108.445 32.4922 108.729 32.5117 109.002 32.5117C109.412 32.5117 109.861 32.4727 110.35 32.3945C110.838 32.2969 111.297 32.1211 111.727 31.8672C112.156 31.5938 112.508 31.2324 112.781 30.7832C113.074 30.334 113.221 29.7383 113.221 28.9961C113.221 28.2539 113.074 27.6484 112.781 27.1797C112.508 26.7109 112.166 26.3496 111.756 26.0957C111.346 25.8223 110.896 25.6465 110.408 25.5684C109.92 25.4707 109.471 25.4219 109.061 25.4219ZM165.193 20.5586C165.193 22.3359 164.988 24.0547 164.578 25.7148C164.168 27.3555 163.572 28.8984 162.791 30.3438C162.029 31.7891 161.092 33.1172 159.979 34.3281C158.885 35.5195 157.645 36.5449 156.258 37.4043C154.891 38.2637 153.396 38.9375 151.775 39.4258C150.154 39.8945 148.436 40.1289 146.619 40.1289C144.861 40.1289 143.182 39.9043 141.58 39.4551C139.998 39.0059 138.514 38.3809 137.127 37.5801C135.74 36.7598 134.48 35.7832 133.348 34.6504C132.234 33.498 131.277 32.2285 130.477 30.8418C129.695 29.4355 129.08 27.9316 128.631 26.3301C128.201 24.7285 127.986 23.0586 127.986 21.3203C127.986 19.6211 128.191 17.9609 128.602 16.3398C129.012 14.6992 129.598 13.1563 130.359 11.7109C131.141 10.2656 132.078 8.9375 133.172 7.72656C134.266 6.51563 135.486 5.4707 136.834 4.5918C138.201 3.71289 139.676 3.0293 141.258 2.54102C142.84 2.05273 144.51 1.80859 146.268 1.80859C149.1 1.80859 151.678 2.24805 154.002 3.12695C156.346 4.00586 158.338 5.26562 159.979 6.90625C161.639 8.52734 162.918 10.5 163.816 12.8242C164.734 15.1289 165.193 17.707 165.193 20.5586ZM152.186 21.3203C152.186 20.4805 152.059 19.6699 151.805 18.8887C151.57 18.0879 151.219 17.3848 150.75 16.7793C150.281 16.1543 149.695 15.6562 148.992 15.2852C148.309 14.8945 147.518 14.6992 146.619 14.6992C145.701 14.6992 144.881 14.8652 144.158 15.1973C143.436 15.5293 142.811 15.9883 142.283 16.5742C141.775 17.1406 141.385 17.8145 141.111 18.5957C140.838 19.3574 140.701 20.168 140.701 21.0273C140.701 21.8477 140.818 22.668 141.053 23.4883C141.287 24.3086 141.639 25.0508 142.107 25.7148C142.576 26.3789 143.152 26.916 143.836 27.3262C144.539 27.7363 145.35 27.9414 146.268 27.9414C147.186 27.9414 148.006 27.7656 148.729 27.4141C149.471 27.043 150.096 26.5547 150.604 25.9492C151.111 25.3242 151.502 24.6113 151.775 23.8105C152.049 23.0098 152.186 22.1797 152.186 21.3203ZM202.664 36.4375C201.746 37.5898 200.613 38.5957 199.266 39.4551C197.918 40.3145 196.473 41.0273 194.93 41.5938C193.387 42.1602 191.805 42.5898 190.184 42.8828C188.562 43.1562 187.02 43.293 185.555 43.293C182.723 43.293 180.115 42.8145 177.732 41.8574C175.35 40.9004 173.289 39.5723 171.551 37.873C169.832 36.1543 168.484 34.1133 167.508 31.75C166.531 29.3867 166.043 26.8086 166.043 24.0156C166.043 21.8867 166.287 19.8164 166.775 17.8047C167.264 15.793 167.957 13.9082 168.855 12.1504C169.773 10.3926 170.887 8.78125 172.195 7.31641C173.504 5.85156 174.988 4.5918 176.648 3.53711C178.309 2.48242 180.125 1.67187 182.098 1.10547C184.09 0.519531 186.199 0.226562 188.426 0.226562C189.266 0.226562 190.164 0.265625 191.121 0.34375C192.078 0.402344 193.025 0.519531 193.963 0.695312C194.92 0.851562 195.848 1.07617 196.746 1.36914C197.645 1.66211 198.465 2.02344 199.207 2.45312L198.387 13.6445C197.293 13.2344 196.16 12.9609 194.988 12.8242C193.836 12.668 192.703 12.5898 191.59 12.5898C190.027 12.5898 188.562 12.8047 187.195 13.2344C185.848 13.6445 184.666 14.2598 183.65 15.0801C182.654 15.9004 181.863 16.9258 181.277 18.1562C180.691 19.3867 180.398 20.8125 180.398 22.4336C180.398 23.4492 180.535 24.4355 180.809 25.3926C181.082 26.3301 181.492 27.1699 182.039 27.9121C182.605 28.6348 183.299 29.2207 184.119 29.6699C184.959 30.1191 185.926 30.3438 187.02 30.3438C187.762 30.3438 188.523 30.2461 189.305 30.0508C190.105 29.8555 190.789 29.5234 191.355 29.0547L191.473 26.7695L184.441 26.6523L184.793 17.8633C187.703 17.7656 190.613 17.6875 193.523 17.6289C196.434 17.5508 199.363 17.4531 202.312 17.3359L202.664 36.4375ZM240.34 36.4375C239.422 37.5898 238.289 38.5957 236.941 39.4551C235.594 40.3145 234.148 41.0273 232.605 41.5938C231.062 42.1602 229.48 42.5898 227.859 42.8828C226.238 43.1562 224.695 43.293 223.23 43.293C220.398 43.293 217.791 42.8145 215.408 41.8574C213.025 40.9004 210.965 39.5723 209.227 37.873C207.508 36.1543 206.16 34.1133 205.184 31.75C204.207 29.3867 203.719 26.8086 203.719 24.0156C203.719 21.8867 203.963 19.8164 204.451 17.8047C204.939 15.793 205.633 13.9082 206.531 12.1504C207.449 10.3926 208.562 8.78125 209.871 7.31641C211.18 5.85156 212.664 4.5918 214.324 3.53711C215.984 2.48242 217.801 1.67187 219.773 1.10547C221.766 0.519531 223.875 0.226562 226.102 0.226562C226.941 0.226562 227.84 0.265625 228.797 0.34375C229.754 0.402344 230.701 0.519531 231.639 0.695312C232.596 0.851562 233.523 1.07617 234.422 1.36914C235.32 1.66211 236.141 2.02344 236.883 2.45312L236.062 13.6445C234.969 13.2344 233.836 12.9609 232.664 12.8242C231.512 12.668 230.379 12.5898 229.266 12.5898C227.703 12.5898 226.238 12.8047 224.871 13.2344C223.523 13.6445 222.342 14.2598 221.326 15.0801C220.33 15.9004 219.539 16.9258 218.953 18.1562C218.367 19.3867 218.074 20.8125 218.074 22.4336C218.074 23.4492 218.211 24.4355 218.484 25.3926C218.758 26.3301 219.168 27.1699 219.715 27.9121C220.281 28.6348 220.975 29.2207 221.795 29.6699C222.635 30.1191 223.602 30.3438 224.695 30.3438C225.438 30.3438 226.199 30.2461 226.98 30.0508C227.781 29.8555 228.465 29.5234 229.031 29.0547L229.148 26.7695L222.117 26.6523L222.469 17.8633C225.379 17.7656 228.289 17.6875 231.199 17.6289C234.109 17.5508 237.039 17.4531 239.988 17.3359L240.34 36.4375ZM279.539 40.4805L265.008 42.3555L263.25 35.7344H256.57L255.105 42.3555L240.164 40.8906L251.824 1.86719L268.113 1.04688L279.539 40.4805ZM262.195 26.7695L259.969 16.5742L257.801 26.7695H262.195Z" fill="#EB5A3C"/>
</svg>
