<svg width="299" height="62" viewBox="0 0 299 62" fill="none" xmlns="http://www.w3.org/2000/svg">
<rect width="299" height="62" rx="20" fill="#EB5A3C"/>
<path d="M98.895 30.24H102.765V35.58C102.195 35.77 101.61 35.91 101.01 36C100.42 36.1 99.745 36.15 98.985 36.15C97.895 36.15 96.97 35.93 96.21 35.49C95.46 35.05 94.885 34.42 94.485 33.6C94.095 32.78 93.9 31.795 93.9 30.645C93.9 29.525 94.12 28.555 94.56 27.735C95 26.915 95.63 26.28 96.45 25.83C97.28 25.37 98.285 25.14 99.465 25.14C100.055 25.14 100.62 25.2 101.16 25.32C101.7 25.43 102.2 25.585 102.66 25.785L102.075 27.135C101.705 26.965 101.29 26.825 100.83 26.715C100.38 26.595 99.905 26.535 99.405 26.535C98.615 26.535 97.93 26.705 97.35 27.045C96.78 27.375 96.34 27.85 96.03 28.47C95.73 29.08 95.58 29.81 95.58 30.66C95.58 31.46 95.705 32.17 95.955 32.79C96.205 33.41 96.6 33.895 97.14 34.245C97.68 34.595 98.385 34.77 99.255 34.77C99.545 34.77 99.8 34.76 100.02 34.74C100.24 34.71 100.44 34.68 100.62 34.65C100.81 34.61 100.99 34.575 101.16 34.545V31.635H98.895V30.24ZM112.268 31.95C112.268 32.62 112.178 33.215 111.998 33.735C111.818 34.255 111.563 34.695 111.233 35.055C110.903 35.415 110.503 35.69 110.033 35.88C109.563 36.06 109.033 36.15 108.443 36.15C107.903 36.15 107.403 36.06 106.943 35.88C106.483 35.69 106.083 35.415 105.743 35.055C105.413 34.695 105.153 34.255 104.963 33.735C104.773 33.215 104.678 32.615 104.678 31.935C104.678 31.045 104.828 30.29 105.128 29.67C105.438 29.05 105.878 28.58 106.448 28.26C107.028 27.93 107.708 27.765 108.488 27.765C109.228 27.765 109.878 27.93 110.438 28.26C111.008 28.58 111.453 29.05 111.773 29.67C112.103 30.29 112.268 31.05 112.268 31.95ZM106.313 31.95C106.313 32.55 106.388 33.07 106.538 33.51C106.688 33.94 106.923 34.27 107.243 34.5C107.563 34.73 107.973 34.845 108.473 34.845C108.973 34.845 109.383 34.73 109.703 34.5C110.023 34.27 110.258 33.94 110.408 33.51C110.558 33.07 110.633 32.55 110.633 31.95C110.633 31.33 110.553 30.81 110.393 30.39C110.243 29.97 110.008 29.65 109.688 29.43C109.378 29.2 108.968 29.085 108.458 29.085C107.708 29.085 107.163 29.335 106.823 29.835C106.483 30.335 106.313 31.04 106.313 31.95ZM121.409 31.95C121.409 32.62 121.319 33.215 121.139 33.735C120.959 34.255 120.704 34.695 120.374 35.055C120.044 35.415 119.644 35.69 119.174 35.88C118.704 36.06 118.174 36.15 117.584 36.15C117.044 36.15 116.544 36.06 116.084 35.88C115.624 35.69 115.224 35.415 114.884 35.055C114.554 34.695 114.294 34.255 114.104 33.735C113.914 33.215 113.819 32.615 113.819 31.935C113.819 31.045 113.969 30.29 114.269 29.67C114.579 29.05 115.019 28.58 115.589 28.26C116.169 27.93 116.849 27.765 117.629 27.765C118.369 27.765 119.019 27.93 119.579 28.26C120.149 28.58 120.594 29.05 120.914 29.67C121.244 30.29 121.409 31.05 121.409 31.95ZM115.454 31.95C115.454 32.55 115.529 33.07 115.679 33.51C115.829 33.94 116.064 34.27 116.384 34.5C116.704 34.73 117.114 34.845 117.614 34.845C118.114 34.845 118.524 34.73 118.844 34.5C119.164 34.27 119.399 33.94 119.549 33.51C119.699 33.07 119.774 32.55 119.774 31.95C119.774 31.33 119.694 30.81 119.534 30.39C119.384 29.97 119.149 29.65 118.829 29.43C118.519 29.2 118.109 29.085 117.599 29.085C116.849 29.085 116.304 29.335 115.964 29.835C115.624 30.335 115.454 31.04 115.454 31.95ZM126.215 27.765C126.735 27.765 127.205 27.865 127.625 28.065C128.045 28.265 128.4 28.57 128.69 28.98H128.765L128.945 27.915H130.235V36.105C130.235 36.865 130.1 37.505 129.83 38.025C129.56 38.545 129.145 38.935 128.585 39.195C128.035 39.465 127.34 39.6 126.5 39.6C125.92 39.6 125.385 39.56 124.895 39.48C124.405 39.4 123.955 39.275 123.545 39.105V37.71C123.835 37.85 124.14 37.965 124.46 38.055C124.78 38.155 125.12 38.225 125.48 38.265C125.84 38.315 126.21 38.34 126.59 38.34C127.25 38.34 127.76 38.15 128.12 37.77C128.48 37.4 128.66 36.875 128.66 36.195V35.925C128.66 35.795 128.665 35.625 128.675 35.415C128.685 35.195 128.695 35.035 128.705 34.935H128.645C128.365 35.355 128.02 35.665 127.61 35.865C127.21 36.055 126.745 36.15 126.215 36.15C125.195 36.15 124.395 35.785 123.815 35.055C123.245 34.315 122.96 33.29 122.96 31.98C122.96 31.1 123.09 30.35 123.35 29.73C123.61 29.1 123.98 28.615 124.46 28.275C124.95 27.935 125.535 27.765 126.215 27.765ZM126.545 29.085C126.125 29.085 125.77 29.2 125.48 29.43C125.19 29.65 124.97 29.975 124.82 30.405C124.67 30.835 124.595 31.365 124.595 31.995C124.595 32.935 124.76 33.65 125.09 34.14C125.43 34.63 125.925 34.875 126.575 34.875C126.955 34.875 127.275 34.825 127.535 34.725C127.805 34.625 128.025 34.47 128.195 34.26C128.375 34.05 128.505 33.785 128.585 33.465C128.675 33.135 128.72 32.74 128.72 32.28V31.98C128.72 31.29 128.64 30.735 128.48 30.315C128.33 29.885 128.095 29.575 127.775 29.385C127.455 29.185 127.045 29.085 126.545 29.085ZM134.316 36H132.726V24.6H134.316V36ZM139.993 27.765C140.703 27.765 141.313 27.915 141.823 28.215C142.333 28.505 142.723 28.925 142.993 29.475C143.273 30.025 143.413 30.675 143.413 31.425V32.295H137.983C138.003 33.125 138.218 33.76 138.628 34.2C139.048 34.64 139.633 34.86 140.383 34.86C140.903 34.86 141.363 34.815 141.763 34.725C142.173 34.625 142.593 34.48 143.023 34.29V35.61C142.623 35.79 142.213 35.925 141.793 36.015C141.383 36.105 140.893 36.15 140.323 36.15C139.543 36.15 138.853 35.995 138.253 35.685C137.653 35.375 137.183 34.915 136.843 34.305C136.513 33.685 136.348 32.925 136.348 32.025C136.348 31.115 136.498 30.345 136.798 29.715C137.108 29.085 137.533 28.605 138.073 28.275C138.623 27.935 139.263 27.765 139.993 27.765ZM139.993 28.995C139.423 28.995 138.963 29.18 138.613 29.55C138.273 29.92 138.073 30.445 138.013 31.125H141.823C141.823 30.705 141.758 30.335 141.628 30.015C141.498 29.695 141.298 29.445 141.028 29.265C140.758 29.085 140.413 28.995 139.993 28.995ZM144.902 34.455H157.202V35.49H144.902V34.455ZM150.407 31.56H151.637V34.89H150.407V31.56ZM146.402 24.6H155.672V28.71H147.662V31.425H146.432V27.72H154.442V25.62H146.402V24.6ZM146.432 30.9H155.987V31.92H146.432V30.9ZM162.598 34.455H174.898V35.49H162.598V34.455ZM168.103 31.56H169.333V34.89H168.103V31.56ZM164.098 24.6H173.368V28.71H165.358V31.425H164.128V27.72H172.138V25.62H164.098V24.6ZM164.128 30.9H173.683V31.92H164.128V30.9ZM177.731 25.035H186.461V26.055H177.731V25.035ZM176.396 34.155H188.651V35.19H176.396V34.155ZM185.786 25.035H187.016V26.4C187.016 26.97 187.006 27.58 186.986 28.23C186.976 28.87 186.936 29.58 186.866 30.36C186.796 31.14 186.676 32.02 186.506 33L185.246 32.865C185.426 31.945 185.551 31.1 185.621 30.33C185.701 29.56 185.746 28.85 185.756 28.2C185.776 27.55 185.786 26.95 185.786 26.4V25.035ZM200.065 23.61H201.31V33.51H200.065V23.61ZM192.595 35.85H201.73V36.87H192.595V35.85ZM192.595 32.505H193.84V36.195H192.595V32.505ZM194.035 24.555C194.715 24.555 195.32 24.695 195.85 24.975C196.38 25.255 196.8 25.65 197.11 26.16C197.42 26.66 197.575 27.235 197.575 27.885C197.575 28.535 197.42 29.115 197.11 29.625C196.8 30.125 196.38 30.52 195.85 30.81C195.32 31.09 194.715 31.23 194.035 31.23C193.365 31.23 192.76 31.09 192.22 30.81C191.69 30.52 191.27 30.125 190.96 29.625C190.65 29.115 190.495 28.535 190.495 27.885C190.495 27.235 190.65 26.66 190.96 26.16C191.27 25.65 191.69 25.255 192.22 24.975C192.76 24.695 193.365 24.555 194.035 24.555ZM194.035 25.635C193.595 25.635 193.2 25.73 192.85 25.92C192.5 26.11 192.22 26.375 192.01 26.715C191.81 27.055 191.71 27.445 191.71 27.885C191.71 28.335 191.81 28.73 192.01 29.07C192.22 29.4 192.5 29.66 192.85 29.85C193.2 30.04 193.595 30.135 194.035 30.135C194.475 30.135 194.87 30.04 195.22 29.85C195.58 29.66 195.86 29.4 196.06 29.07C196.26 28.73 196.36 28.335 196.36 27.885C196.36 27.445 196.26 27.055 196.06 26.715C195.86 26.375 195.58 26.11 195.22 25.92C194.87 25.73 194.475 25.635 194.035 25.635Z" fill="black"/>
</svg>
