<svg width="141" height="34" viewBox="0 0 141 34" fill="none" xmlns="http://www.w3.org/2000/svg">
<path d="M26.7725 15.0684C26.7725 16.4648 26.7285 17.8564 26.6406 19.2432C26.5527 20.6299 26.4502 22.0215 26.333 23.418L18.8037 23.7695C19.0283 22.0703 19.2285 20.3711 19.4043 18.6719C19.5898 16.9629 19.6826 15.2539 19.6826 13.5449C19.6826 13.4375 19.6777 13.252 19.668 12.9883C19.6582 12.7148 19.6387 12.4072 19.6094 12.0654C19.5898 11.7236 19.5557 11.3721 19.5068 11.0107C19.4678 10.6396 19.4092 10.3027 19.3311 10C19.2627 9.6875 19.1748 9.43359 19.0674 9.23828C18.96 9.04297 18.833 8.94531 18.6865 8.94531C18.3447 8.94531 18.0762 9.07715 17.8809 9.34082C17.6855 9.59473 17.5391 9.90234 17.4414 10.2637C17.3535 10.625 17.2998 10.9961 17.2803 11.377C17.2607 11.748 17.251 12.0508 17.251 12.2852C17.251 12.6953 17.2607 13.1055 17.2803 13.5156C17.2998 13.9258 17.3096 14.3457 17.3096 14.7754C17.3096 16.2891 17.2705 17.7979 17.1924 19.3018C17.124 20.8057 17.0361 22.3145 16.9287 23.8281L9.98535 24.0918C10.21 22.3926 10.4053 20.6982 10.5713 19.0088C10.7471 17.3096 10.835 15.6055 10.835 13.8965C10.835 13.7891 10.8301 13.5938 10.8203 13.3105C10.8105 13.0273 10.791 12.71 10.7617 12.3584C10.7422 12.0068 10.708 11.6406 10.6592 11.2598C10.6104 10.8789 10.5469 10.5322 10.4688 10.2197C10.4004 9.89746 10.3125 9.63379 10.2051 9.42871C10.0977 9.22363 9.96582 9.12109 9.80957 9.12109C9.56543 9.12109 9.36035 9.21875 9.19434 9.41406C9.02832 9.59961 8.8916 9.84375 8.78418 10.1465C8.68652 10.4492 8.6084 10.7861 8.5498 11.1572C8.50098 11.5186 8.46191 11.875 8.43262 12.2266C8.41309 12.5781 8.39844 12.9053 8.38867 13.208C8.38867 13.501 8.38379 13.7207 8.37402 13.8672L8.05176 24.5605H0.668945C0.825195 22.9102 0.981445 21.2549 1.1377 19.5947C1.30371 17.9346 1.44531 16.2793 1.5625 14.6289C1.68945 12.9688 1.79199 11.3086 1.87012 9.64844C1.94824 7.98828 1.9873 6.32812 1.9873 4.66797L8.95996 4.375L8.93066 6.07422C9.14551 5.80078 9.38965 5.52734 9.66309 5.25391C9.93652 4.9707 10.2246 4.72168 10.5273 4.50684C10.8398 4.28223 11.167 4.10156 11.5088 3.96484C11.8604 3.82813 12.2217 3.75977 12.5928 3.75977C13.0713 3.75977 13.501 3.79883 13.8818 3.87695C14.2627 3.94531 14.6045 4.06738 14.9072 4.24316C15.2197 4.41895 15.4932 4.66309 15.7275 4.97559C15.9619 5.27832 16.167 5.66406 16.3428 6.13281C16.6553 5.79102 16.9678 5.47363 17.2803 5.18066C17.6025 4.8877 17.9395 4.63867 18.291 4.43359C18.6426 4.21875 19.0234 4.05273 19.4336 3.93555C19.8438 3.81836 20.2979 3.75977 20.7959 3.75977C21.7432 3.75977 22.5488 3.94531 23.2129 4.31641C23.877 4.67773 24.4287 5.16113 24.8682 5.7666C25.3174 6.37207 25.6641 7.06543 25.9082 7.84668C26.1621 8.62793 26.3525 9.43848 26.4795 10.2783C26.6064 11.1182 26.6846 11.9531 26.7139 12.7832C26.7529 13.6133 26.7725 14.375 26.7725 15.0684ZM46.2256 13.7793C46.2256 14.668 46.123 15.5273 45.918 16.3574C45.7129 17.1777 45.415 17.9492 45.0244 18.6719C44.6436 19.3945 44.1748 20.0586 43.6182 20.6641C43.0713 21.2598 42.4512 21.7725 41.7578 22.2021C41.0742 22.6318 40.3271 22.9688 39.5166 23.2129C38.7061 23.4473 37.8467 23.5645 36.9385 23.5645C36.0596 23.5645 35.2197 23.4521 34.4189 23.2275C33.6279 23.0029 32.8857 22.6904 32.1924 22.29C31.499 21.8799 30.8691 21.3916 30.3027 20.8252C29.7461 20.249 29.2676 19.6143 28.8672 18.9209C28.4766 18.2178 28.1689 17.4658 27.9443 16.665C27.7295 15.8643 27.6221 15.0293 27.6221 14.1602C27.6221 13.3105 27.7246 12.4805 27.9297 11.6699C28.1348 10.8496 28.4277 10.0781 28.8086 9.35547C29.1992 8.63281 29.668 7.96875 30.2148 7.36328C30.7617 6.75781 31.3721 6.23535 32.0459 5.7959C32.7295 5.35645 33.4668 5.01465 34.2578 4.77051C35.0488 4.52637 35.8838 4.4043 36.7627 4.4043C38.1787 4.4043 39.4678 4.62402 40.6299 5.06348C41.8018 5.50293 42.7979 6.13281 43.6182 6.95312C44.4482 7.76367 45.0879 8.75 45.5371 9.91211C45.9961 11.0645 46.2256 12.3535 46.2256 13.7793ZM39.7217 14.1602C39.7217 13.7402 39.6582 13.335 39.5312 12.9443C39.4141 12.5439 39.2383 12.1924 39.0039 11.8896C38.7695 11.5771 38.4766 11.3281 38.125 11.1426C37.7832 10.9473 37.3877 10.8496 36.9385 10.8496C36.4795 10.8496 36.0693 10.9326 35.708 11.0986C35.3467 11.2646 35.0342 11.4941 34.7705 11.7871C34.5166 12.0703 34.3213 12.4072 34.1846 12.7979C34.0479 13.1787 33.9795 13.584 33.9795 14.0137C33.9795 14.4238 34.0381 14.834 34.1553 15.2441C34.2725 15.6543 34.4482 16.0254 34.6826 16.3574C34.917 16.6895 35.2051 16.958 35.5469 17.1631C35.8984 17.3682 36.3037 17.4707 36.7627 17.4707C37.2217 17.4707 37.6318 17.3828 37.9932 17.207C38.3643 17.0215 38.6768 16.7773 38.9307 16.4746C39.1846 16.1621 39.3799 15.8057 39.5166 15.4053C39.6533 15.0049 39.7217 14.5898 39.7217 14.1602Z" fill="#EB5A3C"/>
<path d="M64.3018 19.7852C64.3018 20.5957 64.1504 21.2939 63.8477 21.8799C63.5547 22.4658 63.1592 22.9639 62.6611 23.374C62.1631 23.7842 61.5869 24.1211 60.9326 24.3848C60.2881 24.6387 59.6143 24.8389 58.9111 24.9854C58.208 25.1318 57.5 25.2295 56.7871 25.2783C56.084 25.3271 55.4248 25.3516 54.8096 25.3516C54.2041 25.3516 53.5742 25.3271 52.9199 25.2783C52.2754 25.2393 51.6309 25.166 50.9863 25.0586C50.3418 24.9512 49.707 24.8096 49.082 24.6338C48.457 24.4482 47.8662 24.2188 47.3096 23.9453L47.2803 5.07812C47.8271 4.85352 48.4082 4.65332 49.0234 4.47754C49.6387 4.29199 50.2637 4.14062 50.8984 4.02344C51.543 3.89648 52.1826 3.80371 52.8174 3.74512C53.4521 3.67676 54.0674 3.64258 54.6631 3.64258C55.3564 3.64258 56.0547 3.68652 56.7578 3.77441C57.4707 3.8623 58.1543 4.00879 58.8086 4.21387C59.4629 4.41895 60.0732 4.6875 60.6396 5.01953C61.2061 5.3418 61.6992 5.74219 62.1191 6.2207C62.5488 6.69922 62.8809 7.25586 63.1152 7.89062C63.3594 8.52539 63.4814 9.25781 63.4814 10.0879C63.4814 10.6348 63.4033 11.1475 63.2471 11.626C63.0908 12.1045 62.8662 12.5342 62.5732 12.915C62.2803 13.2959 61.9238 13.623 61.5039 13.8965C61.084 14.1602 60.6104 14.3555 60.083 14.4824C60.7178 14.6484 61.2939 14.8926 61.8115 15.2148C62.3389 15.5371 62.7832 15.9277 63.1445 16.3867C63.5156 16.8457 63.7988 17.3633 63.9941 17.9395C64.1992 18.5156 64.3018 19.1309 64.3018 19.7852ZM56.8604 11.4355C56.8604 11.1523 56.8018 10.9131 56.6846 10.7178C56.5674 10.5127 56.4209 10.3467 56.2451 10.2197C56.0791 10.0928 55.8936 10 55.6885 9.94141C55.4932 9.88281 55.3174 9.85352 55.1611 9.85352C54.9658 9.85352 54.7754 9.88281 54.5898 9.94141C54.4043 10 54.2236 10.0684 54.0479 10.1465L53.96 13.3984C54.1846 13.3984 54.4629 13.3789 54.7949 13.3398C55.127 13.3008 55.4443 13.2178 55.7471 13.0908C56.0596 12.9541 56.3232 12.7588 56.5381 12.5049C56.7529 12.2412 56.8604 11.8848 56.8604 11.4355ZM54.7803 16.2109C54.4971 16.2109 54.2236 16.2402 53.96 16.2988L53.9014 19.6387C54.0479 19.668 54.1895 19.6973 54.3262 19.7266C54.4727 19.7461 54.6143 19.7559 54.751 19.7559C54.9561 19.7559 55.1807 19.7363 55.4248 19.6973C55.6689 19.6484 55.8984 19.5605 56.1133 19.4336C56.3281 19.2969 56.5039 19.1162 56.6406 18.8916C56.7871 18.667 56.8604 18.3691 56.8604 17.998C56.8604 17.627 56.7871 17.3242 56.6406 17.0898C56.5039 16.8555 56.333 16.6748 56.1279 16.5479C55.9229 16.4111 55.6982 16.3232 55.4541 16.2842C55.21 16.2354 54.9854 16.2109 54.7803 16.2109ZM82.8467 13.7793C82.8467 14.668 82.7441 15.5273 82.5391 16.3574C82.334 17.1777 82.0361 17.9492 81.6455 18.6719C81.2646 19.3945 80.7959 20.0586 80.2393 20.6641C79.6924 21.2598 79.0723 21.7725 78.3789 22.2021C77.6953 22.6318 76.9482 22.9688 76.1377 23.2129C75.3271 23.4473 74.4678 23.5645 73.5596 23.5645C72.6807 23.5645 71.8408 23.4521 71.04 23.2275C70.249 23.0029 69.5068 22.6904 68.8135 22.29C68.1201 21.8799 67.4902 21.3916 66.9238 20.8252C66.3672 20.249 65.8887 19.6143 65.4883 18.9209C65.0977 18.2178 64.79 17.4658 64.5654 16.665C64.3506 15.8643 64.2432 15.0293 64.2432 14.1602C64.2432 13.3105 64.3457 12.4805 64.5508 11.6699C64.7559 10.8496 65.0488 10.0781 65.4297 9.35547C65.8203 8.63281 66.2891 7.96875 66.8359 7.36328C67.3828 6.75781 67.9932 6.23535 68.667 5.7959C69.3506 5.35645 70.0879 5.01465 70.8789 4.77051C71.6699 4.52637 72.5049 4.4043 73.3838 4.4043C74.7998 4.4043 76.0889 4.62402 77.251 5.06348C78.4229 5.50293 79.4189 6.13281 80.2393 6.95312C81.0693 7.76367 81.709 8.75 82.1582 9.91211C82.6172 11.0645 82.8467 12.3535 82.8467 13.7793ZM76.3428 14.1602C76.3428 13.7402 76.2793 13.335 76.1523 12.9443C76.0352 12.5439 75.8594 12.1924 75.625 11.8896C75.3906 11.5771 75.0977 11.3281 74.7461 11.1426C74.4043 10.9473 74.0088 10.8496 73.5596 10.8496C73.1006 10.8496 72.6904 10.9326 72.3291 11.0986C71.9678 11.2646 71.6553 11.4941 71.3916 11.7871C71.1377 12.0703 70.9424 12.4072 70.8057 12.7979C70.6689 13.1787 70.6006 13.584 70.6006 14.0137C70.6006 14.4238 70.6592 14.834 70.7764 15.2441C70.8936 15.6543 71.0693 16.0254 71.3037 16.3574C71.5381 16.6895 71.8262 16.958 72.168 17.1631C72.5195 17.3682 72.9248 17.4707 73.3838 17.4707C73.8428 17.4707 74.2529 17.3828 74.6143 17.207C74.9854 17.0215 75.2979 16.7773 75.5518 16.4746C75.8057 16.1621 76.001 15.8057 76.1377 15.4053C76.2744 15.0049 76.3428 14.5898 76.3428 14.1602ZM101.582 21.7188C101.123 22.2949 100.557 22.7979 99.8828 23.2275C99.209 23.6572 98.4863 24.0137 97.7148 24.2969C96.9434 24.5801 96.1523 24.7949 95.3418 24.9414C94.5312 25.0781 93.7598 25.1465 93.0273 25.1465C91.6113 25.1465 90.3076 24.9072 89.1162 24.4287C87.9248 23.9502 86.8945 23.2861 86.0254 22.4365C85.166 21.5771 84.4922 20.5566 84.0039 19.375C83.5156 18.1934 83.2715 16.9043 83.2715 15.5078C83.2715 14.4434 83.3936 13.4082 83.6377 12.4023C83.8818 11.3965 84.2285 10.4541 84.6777 9.5752C85.1367 8.69629 85.6934 7.89062 86.3477 7.1582C87.002 6.42578 87.7441 5.7959 88.5742 5.26855C89.4043 4.74121 90.3125 4.33594 91.2988 4.05273C92.2949 3.75977 93.3496 3.61328 94.4629 3.61328C94.8828 3.61328 95.332 3.63281 95.8105 3.67188C96.2891 3.70117 96.7627 3.75977 97.2314 3.84766C97.71 3.92578 98.1738 4.03809 98.623 4.18457C99.0723 4.33105 99.4824 4.51172 99.8535 4.72656L99.4434 10.3223C98.8965 10.1172 98.3301 9.98047 97.7441 9.91211C97.168 9.83398 96.6016 9.79492 96.0449 9.79492C95.2637 9.79492 94.5312 9.90234 93.8477 10.1172C93.1738 10.3223 92.583 10.6299 92.0752 11.04C91.5771 11.4502 91.1816 11.9629 90.8887 12.5781C90.5957 13.1934 90.4492 13.9062 90.4492 14.7168C90.4492 15.2246 90.5176 15.7178 90.6543 16.1963C90.791 16.665 90.9961 17.085 91.2695 17.4561C91.5527 17.8174 91.8994 18.1104 92.3096 18.335C92.7295 18.5596 93.2129 18.6719 93.7598 18.6719C94.1309 18.6719 94.5117 18.623 94.9023 18.5254C95.3027 18.4277 95.6445 18.2617 95.9277 18.0273L95.9863 16.8848L92.4707 16.8262L92.6465 12.4316C94.1016 12.3828 95.5566 12.3438 97.0117 12.3145C98.4668 12.2754 99.9316 12.2266 101.406 12.168L101.582 21.7188ZM120.42 21.7188C119.961 22.2949 119.395 22.7979 118.721 23.2275C118.047 23.6572 117.324 24.0137 116.553 24.2969C115.781 24.5801 114.99 24.7949 114.18 24.9414C113.369 25.0781 112.598 25.1465 111.865 25.1465C110.449 25.1465 109.146 24.9072 107.954 24.4287C106.763 23.9502 105.732 23.2861 104.863 22.4365C104.004 21.5771 103.33 20.5566 102.842 19.375C102.354 18.1934 102.109 16.9043 102.109 15.5078C102.109 14.4434 102.231 13.4082 102.476 12.4023C102.72 11.3965 103.066 10.4541 103.516 9.5752C103.975 8.69629 104.531 7.89062 105.186 7.1582C105.84 6.42578 106.582 5.7959 107.412 5.26855C108.242 4.74121 109.15 4.33594 110.137 4.05273C111.133 3.75977 112.188 3.61328 113.301 3.61328C113.721 3.61328 114.17 3.63281 114.648 3.67188C115.127 3.70117 115.601 3.75977 116.069 3.84766C116.548 3.92578 117.012 4.03809 117.461 4.18457C117.91 4.33105 118.32 4.51172 118.691 4.72656L118.281 10.3223C117.734 10.1172 117.168 9.98047 116.582 9.91211C116.006 9.83398 115.439 9.79492 114.883 9.79492C114.102 9.79492 113.369 9.90234 112.686 10.1172C112.012 10.3223 111.421 10.6299 110.913 11.04C110.415 11.4502 110.02 11.9629 109.727 12.5781C109.434 13.1934 109.287 13.9062 109.287 14.7168C109.287 15.2246 109.355 15.7178 109.492 16.1963C109.629 16.665 109.834 17.085 110.107 17.4561C110.391 17.8174 110.737 18.1104 111.147 18.335C111.567 18.5596 112.051 18.6719 112.598 18.6719C112.969 18.6719 113.35 18.623 113.74 18.5254C114.141 18.4277 114.482 18.2617 114.766 18.0273L114.824 16.8848L111.309 16.8262L111.484 12.4316C112.939 12.3828 114.395 12.3438 115.85 12.3145C117.305 12.2754 118.77 12.2266 120.244 12.168L120.42 21.7188ZM140.02 23.7402L132.754 24.6777L131.875 21.3672H128.535L127.803 24.6777L120.332 23.9453L126.162 4.43359L134.307 4.02344L140.02 23.7402ZM131.348 16.8848L130.234 11.7871L129.15 16.8848H131.348Z" fill="white"/>
<circle cx="30" cy="2" r="2" fill="white"/>
<circle cx="40" cy="2" r="2" fill="white"/>
</svg>
